<svg width="64" height="64" viewBox="0 0 64 64" fill="none" xmlns="http://www.w3.org/2000/svg">
<g clip-path="url(#clip0_3423_19699)">
<circle cx="32" cy="32" r="30.75" stroke="#C4B5E5" stroke-width="2.5"/>
<path fill-rule="evenodd" clip-rule="evenodd" d="M30.5666 30.4572C30.5666 30.8101 30.7058 31.1426 30.9568 31.3914C31.4608 31.8921 32.3392 31.8921 32.8422 31.3914C33.0941 31.1426 33.2334 30.8101 33.2334 30.4572C33.2334 30.1043 33.0941 29.7719 32.8422 29.523C32.5902 29.2732 32.2559 29.1351 31.899 29.1351C31.5431 29.1351 31.2088 29.2732 30.9568 29.522C30.7058 29.7719 30.5666 30.1043 30.5666 30.4572ZM29.5705 32.766C28.9489 32.1497 28.6058 31.3292 28.6058 30.4572C28.6058 29.5852 28.9489 28.7647 29.5705 28.1474C30.8137 26.9138 32.9843 26.9138 34.2285 28.1484C34.8511 28.7647 35.1942 29.5852 35.1942 30.4572C35.1942 31.3292 34.8511 32.1497 34.2285 32.767C33.6069 33.3833 32.7794 33.7226 31.899 33.7226C31.0196 33.7226 30.1921 33.3833 29.5705 32.766ZM25.7429 30.1588L26.142 32.664L27.9254 32.5911C28.2058 32.5823 28.4646 32.6844 28.6597 32.8759L29.4568 33.6692C29.6499 33.8607 29.7538 34.1231 29.7421 34.3944L29.6705 36.1656L32.1961 36.5622L32.6726 34.8746C32.7481 34.6111 32.9314 34.3905 33.1794 34.268L34.2187 33.7537C34.4608 33.6332 34.7432 33.6186 34.9971 33.7119L36.6452 34.3176L37.807 32.0583L36.3315 31.0843C36.105 30.9345 35.9511 30.6983 35.907 30.431L35.7236 29.313C35.6795 29.0437 35.7511 28.7686 35.9217 28.5538L37.0276 27.1666L35.2187 25.3739L33.8226 26.4695C33.6059 26.6387 33.3324 26.7097 33.0549 26.6669L31.9304 26.4841C31.6617 26.4404 31.4245 26.2877 31.2735 26.0632L30.2882 24.5992L28.0097 25.7492L28.6205 27.3814C28.7146 27.6342 28.6999 27.9141 28.5783 28.1552L28.0577 29.1837C27.9332 29.4287 27.7126 29.6105 27.4459 29.6854L25.7429 30.1588ZM24.3419 33.8227L23.6703 29.6086C23.5919 29.1215 23.8939 28.6549 24.3733 28.5207L26.4989 27.9287L26.6332 27.6623L25.8675 25.6141C25.6939 25.1513 25.8979 24.6342 26.341 24.4096L30.1754 22.4741C30.6215 22.2505 31.1588 22.3905 31.4362 22.8007L32.6686 24.6332L32.9451 24.6789L34.6854 23.3121C35.0765 23.0049 35.6344 23.0369 35.9874 23.3869L39.0306 26.4034C39.3816 26.7515 39.4139 27.3065 39.1071 27.6935L37.7286 29.4229L37.7747 29.7009L39.6208 30.92C40.0345 31.1931 40.1767 31.7317 39.9502 32.1711L37.9953 35.9712C37.7698 36.4115 37.2472 36.6118 36.7815 36.4407L34.7128 35.6815L34.4442 35.8146L33.8491 37.9203C33.7295 38.3451 33.3383 38.6299 32.9059 38.6299C32.8549 38.6299 32.803 38.6261 32.752 38.6183L28.5028 37.9504C28.0116 37.8727 27.6557 37.443 27.6763 36.9501L27.7665 34.7404L27.5754 34.5509L25.3508 34.6423C24.9047 34.6588 24.4194 34.3108 24.3419 33.8227ZM48.0014 20.3957L15.6476 20.3869V40.7929L31.3343 40.8017C31.8392 40.8017 32.2804 40.9796 32.6863 41.3461L39.1776 47.5026V42.7459C39.1776 41.5833 39.9659 40.8017 41.1385 40.8017H47.9926L48.0014 20.3957ZM49.9623 20.3869V40.8017C49.9623 41.9469 49.1564 42.7459 48.0014 42.7459H41.1473L41.1385 48.4563C41.1385 49.0687 40.7757 49.6228 40.2139 49.8697C40.0149 49.9572 39.8032 50 39.5924 50C39.2159 50 38.8443 49.862 38.5541 49.6014L31.349 42.7673L15.6476 42.7459C14.475 42.7459 13.6867 41.9644 13.6867 40.8017V20.3869C13.6867 18.952 14.2005 18.4426 15.6476 18.4426H48.0014C49.1573 18.4465 49.9623 19.2456 49.9623 20.3869Z" fill="#432680"/>
</g>
<defs>
<clipPath id="clip0_3423_19699">
<rect width="64" height="64" fill="white"/>
</clipPath>
</defs>
</svg>
